<?xml version="1.0" standalone="no"?><!DOCTYPE svg PUBLIC "-//W3C//DTD SVG 1.1//EN" "http://www.w3.org/Graphics/SVG/1.1/DTD/svg11.dtd"><svg class="icon" width="128px" height="128.00px" viewBox="0 0 1024 1024" version="1.1" xmlns="http://www.w3.org/2000/svg"><path fill="#000000" d="M864 64H160a32 32 0 0 0-32 32v256a32 32 0 0 0 32 32h317.11a1121.38 1121.38 0 0 0-209.28 476.07l-11.31 62.21A32 32 0 0 0 288 960h256a32 32 0 0 0 31.24-25.06l2.76-12.29a1058.45 1058.45 0 0 1 241.56-472.49l44.11-49.62a127.88 127.88 0 0 0 32.33-85V96a32 32 0 0 0-32-32z m-32 64v64H192v-64zM330.79 871.52A1057.21 1057.21 0 0 1 558.84 384h74.89a1121.64 1121.64 0 0 0-242 502.35l-1.96 9.65h-63.43zM832 315.5a63.92 63.92 0 0 1-16.17 42.5l-44.11 49.62A1122.78 1122.78 0 0 0 518.41 896h-63.36a1057.65 1057.65 0 0 1 240.17-485.38l32.86-37.55A32 32 0 0 0 704 320H192v-64h640z"  /></svg>