<?xml version="1.0" standalone="no"?><!DOCTYPE svg PUBLIC "-//W3C//DTD SVG 1.1//EN" "http://www.w3.org/Graphics/SVG/1.1/DTD/svg11.dtd"><svg class="icon" width="128px" height="128.00px" viewBox="0 0 1024 1024" version="1.1" xmlns="http://www.w3.org/2000/svg"><path fill="#000000" d="M830.39 129.61A222.53 222.53 0 0 0 672 64H416a288 288 0 0 0-288 288 32 32 0 0 0 2.29 11.88L188 508.26l-54.67 82A32 32 0 0 0 128 608v128a224 224 0 0 0 224 224h320a224 224 0 0 0 224-224 31.92 31.92 0 0 0-1.64-10.12l-59.81-179.42 58.07-116.15A32 32 0 0 0 896 416V288a222.53 222.53 0 0 0-65.61-158.39zM672 128c73.16 0 135 49.35 154 116.51A207.12 207.12 0 0 0 688 192H544c-88.22 0-160 71.78-160 160a32 32 0 0 0 2.29 11.88L445.94 513l-28.3 84.88A31.92 31.92 0 0 0 416 608a95.56 95.56 0 0 0 5.49 32H352a32.06 32.06 0 0 1-31-23.88l57.39-86.07c0-0.06 0.07-0.12 0.11-0.17l0.09-0.13a31.92 31.92 0 0 0 3.09-29.63L320 345.84V336c0-114.69 93.31-208 208-208zM544 384a32.07 32.07 0 0 1 31.36 25.69l-60 120a31.93 31.93 0 0 0-1.74 24.43l24.24 72.7A32.07 32.07 0 0 1 512 640a32.05 32.05 0 0 1-31.71-27.68l30.06-90.19a31.81 31.81 0 0 0 0-20.25l-30.07-90.2A32.05 32.05 0 0 1 512 384zM337 142.42l-1.28 1.25A270.19 270.19 0 0 0 256 336v16a32 32 0 0 0 2.29 11.88L316 508.26l-54.67 82A32 32 0 0 0 256 608a96.11 96.11 0 0 0 96 96h160a95.77 95.77 0 0 0 47.41-12.57l16.3 48.89A32.05 32.05 0 0 1 544 768H336c-79.4 0-144-64.6-144-144v-6.31l58.43-87.64c0-0.06 0.07-0.12 0.11-0.17l0.09-0.13a31.92 31.92 0 0 0 3.09-29.63L192.08 346c2.45-93.09 62.01-172.22 144.92-203.58zM352 896c-73.16 0-135-49.35-154-116.51A207.12 207.12 0 0 0 336 832h208a96.11 96.11 0 0 0 96-96 31.92 31.92 0 0 0-1.64-10.12l-59.81-179.42 58.07-116.15A32 32 0 0 0 640 416a95.56 95.56 0 0 0-5.49-32H672a32.06 32.06 0 0 1 31.38 25.69l-60 120a31.93 31.93 0 0 0-1.74 24.43L704 741.19V752c0 79.4-64.6 144-144 144z m363.49-6A207.14 207.14 0 0 0 768 752v-16a31.92 31.92 0 0 0-1.64-10.12l-59.81-179.42 58.07-116.15A32 32 0 0 0 768 416a96.11 96.11 0 0 0-96-96H512a95.64 95.64 0 0 0-63.69 24.23A96.14 96.14 0 0 1 544 256h144c79.4 0 144 64.6 144 144v8.45l-60.62 121.24a31.86 31.86 0 0 0-1.73 24.45L831.92 741c-2.17 70.94-50.79 130.43-116.43 149z"  /></svg>