<?xml version="1.0" standalone="no"?><!DOCTYPE svg PUBLIC "-//W3C//DTD SVG 1.1//EN" "http://www.w3.org/Graphics/SVG/1.1/DTD/svg11.dtd"><svg class="icon" width="128px" height="127.75px" viewBox="0 0 1026 1024" version="1.1" xmlns="http://www.w3.org/2000/svg"><path fill="#000000" d="M747.405104 190.174213q-11.246862 0-18.915177-7.668315t-12.780525-17.892735-7.668315-20.960061-2.556105-16.870293l0-126.782808 2.044884 0q9.201978 0 17.381514 2.556105t19.937619 9.713199 28.628376 20.960061 42.431343 36.296691q27.605934 24.538608 43.965006 41.920122t25.049829 28.628376 10.735641 19.426398 2.044884 14.314188l0 16.359072-150.298974 0zM764.786618 796.48232q-36.807912 7.157094-65.436288 19.426398-24.538608 11.246862-43.965006 30.67326t-16.359072 49.077216q2.044884 20.44884 3.067326 36.296691t2.044884 29.139597l-382.393309 0q-19.426398 0-42.431343-11.246862t-42.942564-29.650818-33.229365-42.431343-13.291746-48.565995l0-697.305446q0-21.471282 9.713199-44.987448t26.583492-42.431343 38.341575-31.695702 44.987448-12.780525l391.595287 0 0 127.80525q0 20.44884 6.134652 42.431343t19.426398 41.408901 33.740586 31.695702 48.054774 12.269304l149.276532 0 0 305.710159-41.920122 66.45873-89.974896-105.311526q-17.381514 19.426398-29.650818 38.852796-11.246862 17.381514-20.44884 37.319133t-11.246862 40.386459l-383.415751 0q-26.583492 0-44.987448 18.915177t-18.403956 45.498669 18.403956 44.987448 44.987448 18.403956l383.415751 0q23.516166 0 38.852796-12.269304 5.11221 9.201978 8.690757 17.381514t6.645873 13.291746q4.089768 6.134652 6.134652 11.246862zM321.046789 383.415751q-26.583492 0-44.987448 18.915177t-18.403956 45.498669 18.403956 44.987448 44.987448 18.403956l383.415751 0q26.583492 0 45.498669-18.403956t18.915177-44.987448-18.915177-45.498669-45.498669-18.915177l-383.415751 0zM954.960831 881.345006q6.134652 3.067326 18.403956 7.157094t24.027387 11.758083 20.44884 21.471282 7.668315 36.296691q-1.022442 27.605934-16.359072 43.453785t-35.78547 20.44884-41.408901-2.044884-32.206923-25.049829q-14.314188-23.516166-12.780525-46.521111t5.623431-48.565995q2.044884-14.314188-0.511221-20.44884t-5.623431-11.246862q-2.044884-2.044884-5.623431-6.645873t-6.645873-9.713199q-4.089768-5.11221-8.179536-11.246862-3.067326 5.11221-7.157094 9.201978-3.067326 4.089768-6.645873 9.201978t-6.645873 10.22442q-7.157094 9.201978-7.668315 15.33663t1.533663 14.314188q1.022442 4.089768 2.556105 15.33663t1.022442 25.56105-5.11221 30.162039-15.847851 30.162039q-15.33663 18.403956-35.78547 22.493724t-39.364017-2.556105-32.206923-22.493724-13.291746-38.341575q-1.022442-21.471282 7.157094-35.78547t20.44884-23.516166 25.56105-14.825409 22.493724-8.690757q18.403956-7.157094 25.56105-12.780525t13.291746-13.802967q3.067326-4.089768 7.668315-10.735641t9.713199-12.780525q5.11221-7.157094 10.22442-15.33663-4.089768-4.089768-8.179536-10.22442-4.089768-5.11221-9.713199-12.269304t-11.758083-16.359072q-7.157094-8.179536-14.314188-19.937619t-13.291746-23.516166-10.735641-21.471282-5.623431-14.825409q-4.089768-10.22442-6.134652-26.583492t6.134652-21.471282 11.246862-0.511221 9.201978 12.780525q2.044884 4.089768 14.314188 23.004945t26.583492 39.364017q16.359072 25.56105 34.763028 55.211868 15.33663-24.538608 27.605934-46.00989 11.246862-18.403956 21.471282-35.78547t14.314188-23.516166q7.157094-12.269304 11.758083-18.915177t6.645873-8.690757 6.645873-0.511221 7.668315 6.645873q2.044884 5.11221 1.533663 13.802967t-2.556105 26.072271q-2.044884 8.179536-6.645873 18.403956t-9.713199 20.44884-10.22442 19.426398-8.179536 13.291746q-3.067326 5.11221-9.713199 13.291746t-12.780525 16.359072q-7.157094 10.22442-15.33663 20.44884 5.11221 8.179536 9.201978 14.314188t7.668315 11.758083 5.623431 8.690757q6.134652 11.246862 18.915177 21.471282t25.049829 16.359072zM773.988596 980.521881q14.314188 0 24.027387-9.713199t9.713199-24.027387-9.713199-24.027387-24.027387-9.713199-24.027387 9.713199-9.713199 24.027387 9.713199 24.027387 24.027387 9.713199zM957.005715 993.813627q15.33663 0 26.072271-10.735641t10.735641-26.072271-10.735641-26.072271-26.072271-10.735641-26.072271 10.735641-10.735641 26.072271 10.735641 26.072271 26.072271 10.735641z" /></svg>