<?xml version="1.0" standalone="no"?><!DOCTYPE svg PUBLIC "-//W3C//DTD SVG 1.1//EN" "http://www.w3.org/Graphics/SVG/1.1/DTD/svg11.dtd"><svg class="icon" width="128px" height="128.00px" viewBox="0 0 1024 1024" version="1.1" xmlns="http://www.w3.org/2000/svg"><path fill="#000000" d="M543.744 648.192q0-30.72-11.776-58.368t-31.744-47.616-47.104-31.744-57.856-11.776-58.368 11.776-47.616 31.744-31.744 47.616-11.776 58.368 11.776 57.856 31.744 47.104 47.616 31.744 58.368 11.776 57.856-11.776 47.104-31.744 31.744-47.104 11.776-57.856zM736.256 851.968q0-22.528-8.704-43.008t-24.064-35.328-35.84-23.552-43.008-8.704q-23.552 0-43.52 8.704t-34.816 23.552-23.552 35.328-8.704 43.008q0 23.552 8.704 43.52t23.552 35.328 34.816 24.064 43.52 8.704q22.528 0 43.008-8.704t35.84-24.064 24.064-35.328 8.704-43.52zM545.792 474.112q-45.056 0-83.968-16.896t-68.096-46.08-46.08-68.096-16.896-82.944 16.896-83.456 46.08-68.096 68.096-45.568 83.968-16.896q44.032 0 82.944 16.896t68.096 45.568 46.08 68.096 16.896 83.456-16.896 82.944-46.08 68.096-68.096 46.08-82.944 16.896zM435.2 164.864q-17.408 0-29.696 12.288t-12.288 29.696 12.288 29.696 29.696 12.288 29.696-12.288 12.288-29.696-12.288-29.696-29.696-12.288z" /></svg>