<?xml version="1.0" standalone="no"?><!DOCTYPE svg PUBLIC "-//W3C//DTD SVG 1.1//EN" "http://www.w3.org/Graphics/SVG/1.1/DTD/svg11.dtd"><svg class="icon" width="128px" height="119.81px" viewBox="0 0 1094 1024" version="1.1" xmlns="http://www.w3.org/2000/svg"><path fill="#000000" d="M748.819181 190.273726q-10.22977 0-17.902098-7.672328t-12.787213-17.902098-7.672328-20.971029-2.557443-17.902098l0-125.826174 2.045954 0q9.206793 0 17.390609 2.045954t19.948052 9.718282 28.643357 21.482517 42.453546 36.315684q27.62038 24.551449 43.988012 41.430569t24.551449 28.643357 10.741259 19.948052 2.557443 14.321678l0 16.367632-151.400599 0zM867.484515 572.867133q47.056943 0 87.976024 17.902098t71.608392 48.591409 48.591409 71.608392 17.902098 86.953047q0 47.056943-17.902098 87.976024t-48.591409 71.608392-71.608392 48.591409-87.976024 17.902098q-46.033966 0-86.953047-17.902098t-71.608392-48.591409-48.591409-71.608392-17.902098-87.976024q0-46.033966 17.902098-86.953047t48.591409-71.608392 71.608392-48.591409 86.953047-17.902098zM912.495504 798.945055l67.516484-67.516484q9.206793-9.206793 9.206793-22.505495t-9.206793-22.505495-22.505495-9.206793-22.505495 9.206793l-67.516484 67.516484-68.539461-67.516484q-9.206793-9.206793-22.505495-9.206793t-22.505495 9.206793-9.206793 22.505495 9.206793 22.505495l67.516484 67.516484-67.516484 68.539461q-9.206793 9.206793-9.206793 22.505495t9.206793 22.505495 22.505495 9.206793 22.505495-9.206793l68.539461-67.516484 67.516484 67.516484q9.206793 9.206793 22.505495 9.206793t22.505495-9.206793 9.206793-22.505495-9.206793-22.505495zM575.936064 767.232767q-1.022977 8.183816-1.022977 14.321678l0 15.344655q0 46.033966 13.298701 87.464535t37.85015 76.211788l-363.156843 0q-19.436563 0-42.453546-11.252747t-42.965035-29.666334-33.246753-41.942058-13.298701-49.102897l0-696.647353q0-21.482517 10.22977-45.010989t27.108891-42.453546 38.361638-31.712288 45.010989-12.787213l391.8002 0 0 127.872128q0 19.436563 6.137862 41.942058t18.925075 41.430569 33.246753 31.712288 49.102897 12.787213l149.354645 0 0 253.698302q-9.206793-1.022977-18.413586-1.534466t-17.390609-0.511489q-76.723277 0-140.659341 35.804196t-102.809191 96.15984l-297.686314 0q-26.597403 0-45.522478 18.925075t-18.925075 45.522478 18.925075 45.010989 45.522478 18.413586l252.675325 0zM323.260739 383.616384q-26.597403 0-45.522478 18.413586t-18.925075 45.010989 18.925075 45.522478 45.522478 18.925075l383.616384 0q26.597403 0 45.522478-18.925075t18.925075-45.522478-18.925075-45.010989-45.522478-18.413586l-383.616384 0z" /></svg>