<?xml version="1.0" standalone="no"?><!DOCTYPE svg PUBLIC "-//W3C//DTD SVG 1.1//EN" "http://www.w3.org/Graphics/SVG/1.1/DTD/svg11.dtd"><svg class="icon" width="128px" height="128.00px" viewBox="0 0 1024 1024" version="1.1" xmlns="http://www.w3.org/2000/svg"><path fill="#ffffff" d="M811.65 148.35A286.15 286.15 0 0 0 608 64H416a288 288 0 0 0-288 288v128a288 288 0 0 0 288 288h68.77l-35.92 152.67A32 32 0 0 0 480 960h256a32 32 0 0 0 31.15-24.67l128-544A32.27 32.27 0 0 0 896 384v-32a286.15 286.15 0 0 0-84.35-203.65zM416 128h128c88.22 0 160 71.78 160 160v92.29L582.66 896H520.4l66-280.67a32 32 0 0 0-36.81-38.83 32.65 32.65 0 0 0-5.59-0.5H416a96 96 0 0 1-27.87-187.87A95.73 95.73 0 0 0 384 416v40a56.06 56.06 0 0 0 56 56h145.44a32 32 0 0 0 31.12-24.68l22.59-96A32.27 32.27 0 0 0 640 384v-64a128.14 128.14 0 0 0-128-128h-96a286.15 286.15 0 0 0-203.65 84.35q-5.7 5.7-11 11.67C228.92 195.58 314.71 128 416 128z m159.13 256l-15.06 64H448v-32a32 32 0 0 1 32-32zM416 704c-123.51 0-224-100.49-224-224s100.49-224 224-224h96a64.07 64.07 0 0 1 64 64H416c-88.22 0-160 71.78-160 160s71.78 160 160 160h98.89l-15.06 64z m416-323.71L710.66 896H648.4l118.75-504.67A32.27 32.27 0 0 0 768 384v-96a222.38 222.38 0 0 0-36.64-122.87C792 205.26 832 274 832 352z"  /></svg>