<?xml version="1.0" standalone="no"?><!DOCTYPE svg PUBLIC "-//W3C//DTD SVG 1.1//EN" "http://www.w3.org/Graphics/SVG/1.1/DTD/svg11.dtd"><svg class="icon" width="128px" height="128.00px" viewBox="0 0 1024 1024" version="1.1" xmlns="http://www.w3.org/2000/svg"><path fill="#ffffff" d="M802.27 157.73A317.89 317.89 0 0 0 576 64H448a320 320 0 0 0-320 320v256a320 320 0 0 0 320 320h128a320 320 0 0 0 320-320V384a317.89 317.89 0 0 0-93.73-226.27zM192 384c0-141.16 114.84-256 256-256h128c100.29 0 187.28 58 229.25 142.17A285.94 285.94 0 0 0 608 192H480a224 224 0 0 0-224 224v96c0 105.87 86.13 192 192 192h64a127.3 127.3 0 0 0 52.66-11.34A128.17 128.17 0 0 1 448 768h-32c-123.51 0-224-100.49-224-224z m256 192V448a64 64 0 0 1 128 0v128a64 64 0 0 1-128 0zM218.75 753.83A285.94 285.94 0 0 0 416 832h32c105.87 0 192-86.13 192-192V448a127.3 127.3 0 0 0-11.34-52.66A128.18 128.18 0 0 1 704 512v160c0 123.51-100.49 224-224 224h-32c-100.29 0-187.28-58-229.25-142.17zM832 640c0 100.29-58 187.28-142.17 229.25A285.94 285.94 0 0 0 768 672V512c0-105.87-86.13-192-192-192h-64a128.14 128.14 0 0 0-128 128v128a127.3 127.3 0 0 0 11.34 52.66A128.18 128.18 0 0 1 320 512v-96c0-88.22 71.78-160 160-160h128c123.51 0 224 100.49 224 224z"  /></svg>