<?xml version="1.0" standalone="no"?><!DOCTYPE svg PUBLIC "-//W3C//DTD SVG 1.1//EN" "http://www.w3.org/Graphics/SVG/1.1/DTD/svg11.dtd"><svg class="icon" width="128px" height="128.00px" viewBox="0 0 1024 1024" version="1.1" xmlns="http://www.w3.org/2000/svg"><path fill="#ffffff" d="M785.632748 246.155859q-14.351368 24.875704-29.659494 41.140588t-26.78922 25.832462q10.524336 18.178399 3.827031 40.18383-2.870274 8.610821-8.610821 23.918947t-14.351368 36.356799l19.135157 0q17.221642 0 28.224357 6.697305t16.743263 17.221642 6.697305 23.918947 0 25.832462q-0.956758 8.610821-6.218926 45.924377t-12.437852 88.978481-14.829747 110.027154-15.308126 109.070396-13.39461 86.108208-7.654063 40.18383q-2.870274 8.610821-5.740547 18.178399t-8.610821 18.178399-16.264884 14.351368-29.659494 5.740547l-281.286811 0q-9.567579 0-23.918947-2.391895t-28.702736-8.610821-24.875704-17.221642-13.39461-28.224357q-1.913516-13.39461-6.697305-46.402756t-11.481094-77.019008-13.872989-94.719028-13.872989-99.502818-11.959473-91.370376-7.175684-71.278461q-1.913516-24.875704 16.264884-47.359514t55.491956-26.310841q-8.610821-40.18383-14.829747-70.800082t-8.132442-42.097346q-3.827031-17.221642-1.913516-27.745978t7.175684-16.743263 12.916231-9.0892 15.308126-4.783789 20.091915-4.30541 25.832462-5.262168 25.832462-4.783789 21.048673-3.827031q41.140588-5.740547 48.794651 37.313557 0.956758 3.827031 2.870274 17.70002t4.783789 33.964904 6.697305 45.924377 7.654063 54.535198l21.048673 0q3.827031-34.443283 8.610821-75.583871l7.654063-82.281176q4.783789-41.140588 8.610821-80.846039t7.654063-71.278461 6.697305-53.57844 4.783789-27.745978q3.827031-13.39461 12.916231-18.656778t18.178399-2.870274 15.308126 10.524336 4.30541 21.527052q-0.956758 5.740547-2.870274 26.310841t-4.783789 51.186546-6.697305 68.408187-7.654063 78.454145-7.654063 80.846039-6.697305 75.583871l69.843324 0q10.524336-30.616252 21.048673-58.36223t17.221642-44.010862q9.567579-22.962189 29.659494-25.832462-0.956758-1.913516-1.435137-3.827031t-0.478379-4.783789q-7.654063-28.702736-3.827031-50.229788t14.351368-43.532483q5.740547-11.481094 17.221642-19.135157t22.962189-14.829747 20.570294-15.308126 11.002715-20.570294 2.391895-23.440568 1.435137-18.656778q0.956758-9.567579 0.956758-17.221642 14.351368 38.270314 23.918947 74.627113 7.654063 30.616252 10.045958 63.146019t-10.045958 54.535198z" /></svg>