<?xml version="1.0" standalone="no"?><!DOCTYPE svg PUBLIC "-//W3C//DTD SVG 1.1//EN" "http://www.w3.org/Graphics/SVG/1.1/DTD/svg11.dtd"><svg class="icon" width="128px" height="128.00px" viewBox="0 0 1024 1024" version="1.1" xmlns="http://www.w3.org/2000/svg"><path fill="#ffffff" d="M860.16 54.272q38.912 0 65.536 26.624t26.624 65.536l0 693.248q0 38.912-26.624 65.536t-65.536 26.624l-693.248 0q-38.912 0-65.536-26.624t-26.624-65.536l0-693.248q0-38.912 26.624-65.536t65.536-26.624l693.248 0zM199.68 149.504q-33.792-3.072-29.696 32.768 2.048 20.48 5.12 44.544t5.632 49.664 5.632 49.664 5.12 42.496q2.048 19.456 11.776 22.528t22.016-9.216q8.192-8.192 19.456-18.944t18.432-17.92q9.216-9.216 19.456-4.096t23.552 18.432q19.456 19.456 33.28 32.256t28.16 27.136q14.336 15.36 25.088 18.944t26.112-10.752q10.24-11.264 14.336-15.36l13.312-13.312q15.36-16.384 10.24-29.696t-14.336-22.528q-20.48-20.48-35.84-34.304t-34.816-34.304q-9.216-9.216-12.288-16.896t6.144-16.896q8.192-8.192 18.432-19.456t18.432-19.456q12.288-12.288 6.656-22.528t-27.136-12.288q-20.48-2.048-44.544-4.608t-48.128-5.632-47.616-5.632-41.984-4.608zM441.344 640q15.36-15.36 17.408-27.648t-13.312-27.648q-11.264-10.24-15.36-14.336l-13.312-13.312q-15.36-15.36-27.648-8.704t-21.504 14.848q-20.48 21.504-36.864 38.4t-36.864 37.376q-9.216 9.216-14.848 10.24t-14.848-7.168q-8.192-8.192-20.992-19.968t-19.968-19.968q-13.312-12.288-23.552-6.656t-12.288 27.136q-2.048 20.48-4.608 44.544t-5.632 48.64-5.632 47.616-3.584 41.472q-3.072 33.792 31.744 29.696 20.48-2.048 45.056-5.12t49.664-5.632 49.152-5.632 43.52-5.12q18.432-2.048 21.504-11.776t-9.216-22.016q-7.168-8.192-16.384-17.92t-16.384-16.896q-9.216-9.216-6.144-17.408t16.384-21.504q19.456-19.456 34.816-35.328t29.696-30.208zM827.392 839.68q33.792 3.072 29.696-32.768-2.048-19.456-5.12-44.032t-5.632-50.176-5.632-49.664-5.12-42.496q-2.048-19.456-11.776-22.528t-22.016 9.216q-8.192 7.168-17.92 16.384t-16.896 16.384q-9.216 9.216-19.456 4.608t-23.552-18.944q-19.456-18.432-35.328-33.792t-30.208-29.696q-15.36-15.36-27.648-17.408t-26.624 13.312q-11.264 10.24-14.848 14.336t-12.8 14.336q-16.384 15.36-9.728 27.648t15.872 21.504q20.48 20.48 37.376 36.864t37.376 36.864q9.216 9.216 12.288 16.896t-5.12 15.872-19.968 20.992-19.968 20.992q-13.312 12.288-7.168 22.528t27.648 12.288q20.48 2.048 44.544 4.608t48.128 5.632 47.616 5.632 41.984 4.608zM858.112 179.2q2.048-18.432-6.144-25.6t-26.624-5.12q-20.48 2.048-44.544 5.12t-49.664 5.632-49.664 5.632-42.496 5.12q-19.456 2.048-22.528 12.288t9.216 22.528q8.192 7.168 18.432 18.432t17.408 17.408q9.216 9.216 4.096 19.456t-18.432 24.576q-19.456 18.432-33.792 33.28t-28.672 29.184q-14.336 15.36-17.408 26.624t11.264 25.6q10.24 11.264 14.848 14.848t13.824 12.8q16.384 16.384 29.696 10.752t22.528-13.824q20.48-21.504 35.328-37.376t35.328-36.352q9.216-9.216 16.896-11.776t16.896 5.632q8.192 8.192 19.456 18.432t19.456 18.432q12.288 13.312 22.528 7.68t12.288-28.16q2.048-20.48 4.608-44.544t5.632-48.128 6.144-46.592z" /></svg>