<?xml version="1.0" standalone="no"?><!DOCTYPE svg PUBLIC "-//W3C//DTD SVG 1.1//EN" "http://www.w3.org/Graphics/SVG/1.1/DTD/svg11.dtd"><svg class="icon" width="128px" height="128.00px" viewBox="0 0 1024 1024" version="1.1" xmlns="http://www.w3.org/2000/svg"><path fill="#ffffff" d="M108.544 572.416q0-77.824 29.184-147.456t80.896-123.392 121.344-87.552 149.504-41.984q10.24-3.072 21.504-3.072l162.816 0 0-81.92q1.024-20.48 16.384-30.72t39.936 7.168q7.168 5.12 27.648 20.992t45.568 35.84 50.688 40.448 44.032 35.84q16.384 13.312 28.672 26.624t12.288 25.6q0 14.336-10.752 24.064t-26.112 22.016l-51.2 38.912q-26.624 19.456-50.688 36.864t-42.496 30.208-26.624 16.896q-15.36 9.216-26.112 11.776t-17.408-0.512-10.24-10.24-3.584-15.36l0-81.92-162.816 0-5.12 0q-50.176 5.12-93.184 26.112t-75.264 54.784-50.688 76.8-18.432 92.16q0 52.224 20.48 97.792t56.32 79.36 83.968 53.76 102.4 19.968l158.72-1.024q16.384 0 33.28 6.144t29.696 16.384 20.992 24.064 8.192 30.208q0 15.36-8.192 29.696t-22.016 24.576-30.72 16.384-33.28 6.144l-177.152 0-9.216 0q-4.096 0-9.216-1.024-80.896-7.168-151.04-41.472t-121.856-88.064-81.408-123.392-29.696-148.48z" /></svg>